<mxfile host="app.diagrams.net" agent="Mozilla/5.0 (X11; Linux x86_64) AppleWebKit/537.36 (KHTML, like Gecko) Chrome/130.0.0.0 Safari/537.36" version="24.9.0" pages="5">
  <diagram id="zNMGI6wU0Mi8Qe2H5Q59" name="Diagram systemu">
    <mxGraphModel dx="476" dy="718" grid="1" gridSize="10" guides="1" tooltips="1" connect="1" arrows="1" fold="1" page="1" pageScale="1" pageWidth="827" pageHeight="1169" math="0" shadow="0">
      <root>
        <mxCell id="0" />
        <mxCell id="1" parent="0" />
        <mxCell id="WStGeSNBQFHGI2kDNCH1-19" style="edgeStyle=orthogonalEdgeStyle;rounded=0;orthogonalLoop=1;jettySize=auto;html=1;entryX=0.5;entryY=0;entryDx=0;entryDy=0;entryPerimeter=0;dashed=1;" parent="1" edge="1">
          <mxGeometry relative="1" as="geometry">
            <mxPoint x="480" y="920" as="targetPoint" />
          </mxGeometry>
        </mxCell>
        <object c4Name="Użytkownik" c4Type="Person" c4Description="Osoba mająca uprawnienia aby&#xa;odczytać dane" label="&lt;b style=&quot;font-size: 9px;&quot;&gt;%c4Name%&lt;/b&gt;&lt;div style=&quot;font-size: 9px;&quot;&gt;[%c4Type%]&lt;/div&gt;&lt;br style=&quot;font-size: 9px;&quot;&gt;&lt;div style=&quot;font-size: 9px;&quot;&gt;%c4Description%&lt;/div&gt;" placeholders="1" id="WStGeSNBQFHGI2kDNCH1-61">
          <mxCell style="html=1;dashed=0;whitespace=wrap;fillColor=#08427b;strokeColor=none;fontColor=#ffffff;shape=mxgraph.c4.person;align=center;metaEdit=1;points=[[0.5,0,0],[1,0.5,0],[1,0.75,0],[0.75,1,0],[0.5,1,0],[0.25,1,0],[0,0.75,0],[0,0.5,0]];metaData={&quot;c4Type&quot;:{&quot;editable&quot;:false}};fontSize=9;" parent="1" vertex="1">
            <mxGeometry x="1161" y="460" width="160" height="140" as="geometry" />
          </mxCell>
        </object>
        <object placeholders="1" c4Name="System odczytu sensorów" c4Type="Software System" c4Description="Umożliwa użytkownikow odczyt zebranych danych" label="&lt;b&gt;%c4Name%&lt;/b&gt;&lt;div&gt;[%c4Type%]&lt;/div&gt;&lt;br&gt;&lt;div&gt;%c4Description%&lt;/div&gt;" link="data:page/id,nvENb8T1neW1ckBA_s9U" id="WStGeSNBQFHGI2kDNCH1-62">
          <mxCell style="rounded=1;whiteSpace=wrap;html=1;labelBackgroundColor=none;fillColor=#1168BD;fontColor=#ffffff;align=center;arcSize=10;strokeColor=#1168BD;metaEdit=1;metaData={&quot;c4Type&quot;:{&quot;editable&quot;:false}};points=[[0.25,0,0],[0.5,0,0],[0.75,0,0],[1,0.25,0],[1,0.5,0],[1,0.75,0],[0.75,1,0],[0.5,1,0],[0.25,1,0],[0,0.75,0],[0,0.5,0],[0,0.25,0]];" parent="1" vertex="1">
            <mxGeometry x="1161" y="650" width="160" height="110.00000000000001" as="geometry" />
          </mxCell>
        </object>
        <mxCell id="WStGeSNBQFHGI2kDNCH1-66" value="Diagram systemu" style="text;html=1;align=center;verticalAlign=middle;whiteSpace=wrap;rounded=0;fontSize=26;" parent="1" vertex="1">
          <mxGeometry x="1111" y="400" width="260" height="30" as="geometry" />
        </mxCell>
        <mxCell id="WStGeSNBQFHGI2kDNCH1-63" style="edgeStyle=orthogonalEdgeStyle;rounded=0;orthogonalLoop=1;jettySize=auto;html=1;entryX=0.5;entryY=0;entryDx=0;entryDy=0;entryPerimeter=0;dashed=1;dashPattern=8 8;" parent="1" source="WStGeSNBQFHGI2kDNCH1-61" target="WStGeSNBQFHGI2kDNCH1-62" edge="1">
          <mxGeometry relative="1" as="geometry" />
        </mxCell>
      </root>
    </mxGraphModel>
  </diagram>
  <diagram id="nvENb8T1neW1ckBA_s9U" name="Seriws odczytu sensorów">
    <mxGraphModel dx="1368" dy="1854" grid="1" gridSize="10" guides="1" tooltips="1" connect="1" arrows="1" fold="1" page="1" pageScale="1" pageWidth="850" pageHeight="1100" math="0" shadow="0">
      <root>
        <mxCell id="0" />
        <mxCell id="1" parent="0" />
        <mxCell id="lxo630zK5npu7nPDbelB-1" value="&lt;div style=&quot;text-align: left&quot;&gt;&lt;b style=&quot;background-color: initial;&quot;&gt;System odczytu sensorów&lt;/b&gt;&lt;/div&gt;" style="rounded=1;whiteSpace=wrap;html=1;labelBackgroundColor=none;fillColor=#ffffff;align=left;arcSize=1;verticalAlign=bottom;points=[[0.25,0,0],[0.5,0,0],[0.75,0,0],[1,0.25,0],[1,0.5,0],[1,0.75,0],[0.75,1,0],[0.5,1,0],[0.25,1,0],[0,0.75,0],[0,0.5,0],[0,0.25,0]];strokeColor=#666666;fontColor=#666666;" parent="1" vertex="1">
          <mxGeometry x="70" y="-600" width="690" height="350" as="geometry" />
        </mxCell>
        <mxCell id="DQSkt-dNoee6BZB92zhh-1" value="&lt;span style=&quot;color: rgba(0, 0, 0, 0); font-family: monospace; font-size: 0px; text-align: start; text-wrap-mode: nowrap;&quot;&gt;%3CmxGraphModel%3E%3Croot%3E%3CmxCell%20id%3D%220%22%2F%3E%3CmxCell%20id%3D%221%22%20parent%3D%220%22%2F%3E%3Cobject%20c4Name%3D%22U%C5%BCytkownik%22%20c4Type%3D%22Person%22%20c4Description%3D%22Osoba%20maj%C4%85ca%20uprawnienia%20aby%26%2310%3Bodczyta%C4%87%20dane%22%20label%3D%22%26lt%3Bb%20style%3D%26quot%3Bfont-size%3A%209px%3B%26quot%3B%26gt%3B%25c4Name%25%26lt%3B%2Fb%26gt%3B%26lt%3Bdiv%20style%3D%26quot%3Bfont-size%3A%209px%3B%26quot%3B%26gt%3B%5B%25c4Type%25%5D%26lt%3B%2Fdiv%26gt%3B%26lt%3Bbr%20style%3D%26quot%3Bfont-size%3A%209px%3B%26quot%3B%26gt%3B%26lt%3Bdiv%20style%3D%26quot%3Bfont-size%3A%209px%3B%26quot%3B%26gt%3B%25c4Description%25%26lt%3B%2Fdiv%26gt%3B%22%20placeholders%3D%221%22%20id%3D%222%22%3E%3CmxCell%20style%3D%22html%3D1%3Bdashed%3D0%3Bwhitespace%3Dwrap%3BfillColor%3D%2308427b%3BstrokeColor%3Dnone%3BfontColor%3D%23ffffff%3Bshape%3Dmxgraph.c4.person%3Balign%3Dcenter%3BmetaEdit%3D1%3Bpoints%3D%5B%5B0.5%2C0%2C0%5D%2C%5B1%2C0.5%2C0%5D%2C%5B1%2C0.75%2C0%5D%2C%5B0.75%2C1%2C0%5D%2C%5B0.5%2C1%2C0%5D%2C%5B0.25%2C1%2C0%5D%2C%5B0%2C0.75%2C0%5D%2C%5B0%2C0.5%2C0%5D%5D%3BmetaData%3D%7B%26quot%3Bc4Type%26quot%3B%3A%7B%26quot%3Beditable%26quot%3B%3Afalse%7D%7D%3BfontSize%3D9%3B%22%20vertex%3D%221%22%20parent%3D%221%22%3E%3CmxGeometry%20x%3D%22990%22%20y%3D%22570%22%20width%3D%22160%22%20height%3D%22140%22%20as%3D%22geometry%22%2F%3E%3C%2FmxCell%3E%3C%2Fobject%3E%3C%2Froot%3E%3C%2FmxGraphModel%3E&lt;/span&gt;" style="rounded=1;whiteSpace=wrap;html=1;fillColor=none;strokeColor=#666666;dashed=1;dashPattern=1 2;fontColor=#666666;" parent="1" vertex="1">
          <mxGeometry x="285" y="-650" width="500" height="430" as="geometry" />
        </mxCell>
        <object placeholders="1" c4Name="Platforma Sprzętowa" c4Type="Container" c4Technology="RIOT OS" c4Description="Sprzęt STM32 Nucleo F207ZG z system RIOT OS czytający dane z sensorów" label="&lt;b style=&quot;font-size: 9px;&quot;&gt;%c4Name%&lt;/b&gt;&lt;div style=&quot;font-size: 9px;&quot;&gt;[%c4Type%: %c4Technology%]&lt;/div&gt;&lt;br style=&quot;font-size: 9px;&quot;&gt;&lt;div style=&quot;font-size: 9px;&quot;&gt;%c4Description%&lt;/div&gt;" link="data:page/id,vCPawuZYCpwM6U8ceN0Y" id="cuTt3dJvBtnq6XZHBRrB-8">
          <mxCell style="rounded=1;whiteSpace=wrap;html=1;labelBackgroundColor=none;fillColor=#438DD5;fontColor=#ffffff;align=center;arcSize=10;strokeColor=#3C7FC0;metaEdit=1;metaData={&quot;c4Type&quot;:{&quot;editable&quot;:false}};points=[[0.25,0,0],[0.5,0,0],[0.75,0,0],[1,0.25,0],[1,0.5,0],[1,0.75,0],[0.75,1,0],[0.5,1,0],[0.25,1,0],[0,0.75,0],[0,0.5,0],[0,0.25,0]];fontSize=9;" parent="1" vertex="1">
            <mxGeometry x="85" y="-555" width="140" height="90" as="geometry" />
          </mxCell>
        </object>
        <mxCell id="cuTt3dJvBtnq6XZHBRrB-15" value="Komunikuje&lt;div&gt;się z&lt;/div&gt;" style="edgeStyle=orthogonalEdgeStyle;rounded=0;orthogonalLoop=1;jettySize=auto;html=1;labelBackgroundColor=none;dashed=1;dashPattern=8 8;" parent="1" source="cuTt3dJvBtnq6XZHBRrB-9" target="cuTt3dJvBtnq6XZHBRrB-10" edge="1">
          <mxGeometry relative="1" as="geometry">
            <mxPoint as="offset" />
          </mxGeometry>
        </mxCell>
        <object placeholders="1" c4Name="Serwer API" c4Type="Container" c4Technology="Python" c4Description="Centralny serwer obsługujący zapis danych z sensorów i odczyt danych przez użytkowników. Uruchamiany w kontenerze Docker." label="&lt;b style=&quot;font-size: 9px;&quot;&gt;%c4Name%&lt;/b&gt;&lt;div style=&quot;font-size: 9px;&quot;&gt;[%c4Type%: %c4Technology%]&lt;/div&gt;&lt;br style=&quot;font-size: 9px;&quot;&gt;&lt;div style=&quot;font-size: 9px;&quot;&gt;%c4Description%&lt;/div&gt;" link="data:page/id,l6TK4eRhQgkXsPULGgNu" id="cuTt3dJvBtnq6XZHBRrB-9">
          <mxCell style="rounded=1;whiteSpace=wrap;html=1;labelBackgroundColor=none;fillColor=#438DD5;fontColor=#ffffff;align=center;arcSize=10;strokeColor=#3C7FC0;metaEdit=1;metaData={&quot;c4Type&quot;:{&quot;editable&quot;:false}};points=[[0.25,0,0],[0.5,0,0],[0.75,0,0],[1,0.25,0],[1,0.5,0],[1,0.75,0],[0.75,1,0],[0.5,1,0],[0.25,1,0],[0,0.75,0],[0,0.5,0],[0,0.25,0]];fontSize=9;" parent="1" vertex="1">
            <mxGeometry x="315" y="-555" width="140" height="90" as="geometry" />
          </mxCell>
        </object>
        <object placeholders="1" c4Type="Database" c4Technology="PostgreSQL" c4Description="Centralna baza danych. Uruchamiana w kontenerze Docker." label="%c4Type%&lt;div style=&quot;font-size: 9px;&quot;&gt;[Container:&amp;nbsp;%c4Technology%]&lt;/div&gt;&lt;br style=&quot;font-size: 9px;&quot;&gt;&lt;div style=&quot;font-size: 9px;&quot;&gt;%c4Description%&lt;/div&gt;" id="cuTt3dJvBtnq6XZHBRrB-10">
          <mxCell style="shape=cylinder;whiteSpace=wrap;html=1;boundedLbl=1;rounded=0;labelBackgroundColor=none;fillColor=#438DD5;fontSize=9;fontColor=#ffffff;align=center;strokeColor=#3C7FC0;metaEdit=1;points=[[0.5,0,0],[1,0.25,0],[1,0.5,0],[1,0.75,0],[0.5,1,0],[0,0.75,0],[0,0.5,0],[0,0.25,0]];metaData={&quot;c4Type&quot;:{&quot;editable&quot;:false}};" parent="1" vertex="1">
            <mxGeometry x="332.5" y="-385" width="107.5" height="105" as="geometry" />
          </mxCell>
        </object>
        <object placeholders="1" c4Name="Strona internetowa SPA" c4Type="Container" c4Technology="React" c4Description="Umożliwa odczyt danych przez użytkownika. Uruchamiana w kontenerze Docker." label="&lt;b style=&quot;font-size: 9px;&quot;&gt;%c4Name%&lt;/b&gt;&lt;div style=&quot;font-size: 9px;&quot;&gt;[%c4Type%: %c4Technology%]&lt;/div&gt;&lt;br style=&quot;font-size: 9px;&quot;&gt;&lt;div style=&quot;font-size: 9px;&quot;&gt;%c4Description%&lt;/div&gt;" link="data:page/id,IFkN-JWvuqYwzXRRgcgd" id="cuTt3dJvBtnq6XZHBRrB-12">
          <mxCell style="rounded=1;whiteSpace=wrap;html=1;labelBackgroundColor=none;fillColor=#438DD5;fontColor=#ffffff;align=center;arcSize=10;strokeColor=#3C7FC0;metaEdit=1;metaData={&quot;c4Type&quot;:{&quot;editable&quot;:false}};points=[[0.25,0,0],[0.5,0,0],[0.75,0,0],[1,0.25,0],[1,0.5,0],[1,0.75,0],[0.75,1,0],[0.5,1,0],[0.25,1,0],[0,0.75,0],[0,0.5,0],[0,0.25,0]];fontSize=9;" parent="1" vertex="1">
            <mxGeometry x="585" y="-555" width="140" height="90" as="geometry" />
          </mxCell>
        </object>
        <mxCell id="cuTt3dJvBtnq6XZHBRrB-13" value="Wysyła zapytania&lt;div&gt;[JSON]&lt;/div&gt;" style="edgeStyle=orthogonalEdgeStyle;rounded=0;orthogonalLoop=1;jettySize=auto;html=1;entryX=1;entryY=0.5;entryDx=0;entryDy=0;entryPerimeter=0;labelBackgroundColor=none;dashed=1;dashPattern=8 8;" parent="1" source="cuTt3dJvBtnq6XZHBRrB-12" target="cuTt3dJvBtnq6XZHBRrB-9" edge="1">
          <mxGeometry relative="1" as="geometry" />
        </mxCell>
        <mxCell id="cuTt3dJvBtnq6XZHBRrB-14" value="Wysyła dane&lt;div&gt;[JSON]&lt;/div&gt;" style="edgeStyle=orthogonalEdgeStyle;rounded=0;orthogonalLoop=1;jettySize=auto;html=1;entryX=0;entryY=0.5;entryDx=0;entryDy=0;entryPerimeter=0;labelBackgroundColor=none;dashed=1;dashPattern=8 8;" parent="1" source="cuTt3dJvBtnq6XZHBRrB-8" target="cuTt3dJvBtnq6XZHBRrB-9" edge="1">
          <mxGeometry relative="1" as="geometry" />
        </mxCell>
        <mxCell id="FsTucxpMQK9R2CDqbmTl-1" value="Docker compose" style="text;html=1;align=center;verticalAlign=middle;whiteSpace=wrap;rounded=0;fontSize=15;" parent="1" vertex="1">
          <mxGeometry x="405" y="-650" width="260" height="30" as="geometry" />
        </mxCell>
        <mxCell id="BzD0HZGWzurf7xkxhSUZ-2" value="Wyświetla&lt;div&gt;dane przez&lt;/div&gt;" style="edgeStyle=orthogonalEdgeStyle;rounded=0;orthogonalLoop=1;jettySize=auto;html=1;entryX=0.5;entryY=0;entryDx=0;entryDy=0;entryPerimeter=0;dashed=1;dashPattern=8 8;" parent="1" source="BzD0HZGWzurf7xkxhSUZ-1" target="cuTt3dJvBtnq6XZHBRrB-12" edge="1">
          <mxGeometry relative="1" as="geometry">
            <mxPoint x="495" y="-770" as="targetPoint" />
          </mxGeometry>
        </mxCell>
        <object c4Name="Użytkownik" c4Type="Person" c4Description="Osoba mająca uprawnienia aby&#xa;odczytać dane" label="&lt;b style=&quot;font-size: 9px;&quot;&gt;%c4Name%&lt;/b&gt;&lt;div style=&quot;font-size: 9px;&quot;&gt;[%c4Type%]&lt;/div&gt;&lt;br style=&quot;font-size: 9px;&quot;&gt;&lt;div style=&quot;font-size: 9px;&quot;&gt;%c4Description%&lt;/div&gt;" placeholders="1" id="BzD0HZGWzurf7xkxhSUZ-1">
          <mxCell style="html=1;dashed=0;whitespace=wrap;fillColor=#08427b;strokeColor=none;fontColor=#ffffff;shape=mxgraph.c4.person;align=center;metaEdit=1;points=[[0.5,0,0],[1,0.5,0],[1,0.75,0],[0.75,1,0],[0.5,1,0],[0.25,1,0],[0,0.75,0],[0,0.5,0]];metaData={&quot;c4Type&quot;:{&quot;editable&quot;:false}};fontSize=9;" parent="1" vertex="1">
            <mxGeometry x="575" y="-880" width="160" height="140" as="geometry" />
          </mxCell>
        </object>
      </root>
    </mxGraphModel>
  </diagram>
  <diagram id="vCPawuZYCpwM6U8ceN0Y" name="Platofrma sprzetowa component">
    <mxGraphModel dx="1368" dy="754" grid="1" gridSize="10" guides="1" tooltips="1" connect="1" arrows="1" fold="1" page="1" pageScale="1" pageWidth="850" pageHeight="1100" math="0" shadow="0">
      <root>
        <mxCell id="0" />
        <mxCell id="1" parent="0" />
        <mxCell id="EUzY8elHtDXzw-o1WnDa-1" value="&lt;div style=&quot;text-align: left&quot;&gt;&lt;b&gt;Platforma sprzętowa&lt;/b&gt;&lt;/div&gt;&lt;div style=&quot;text-align: left&quot;&gt;&lt;b&gt;[STM32 Nucleo F207ZG z&lt;/b&gt;&lt;b style=&quot;background-color: initial;&quot;&gt;&amp;nbsp;RIOT OS]&lt;/b&gt;&lt;/div&gt;" style="rounded=1;whiteSpace=wrap;html=1;labelBackgroundColor=none;fillColor=#ffffff;align=left;arcSize=1;verticalAlign=bottom;points=[[0.25,0,0],[0.5,0,0],[0.75,0,0],[1,0.25,0],[1,0.5,0],[1,0.75,0],[0.75,1,0],[0.5,1,0],[0.25,1,0],[0,0.75,0],[0,0.5,0],[0,0.25,0]];strokeColor=#666666;fontColor=#666666;" parent="1" vertex="1">
          <mxGeometry x="25" y="420" width="574" height="260" as="geometry" />
        </mxCell>
        <object placeholders="1" c4Name="Serwer API" c4Type="Container" c4Technology="Python" c4Description="Centralny serwer obsługujący zapis danych z sensorów i odczyt danych przez użytkowników. Uruchamiany w kontenerze Docker." label="&lt;b style=&quot;font-size: 9px;&quot;&gt;%c4Name%&lt;/b&gt;&lt;div style=&quot;font-size: 9px;&quot;&gt;[%c4Type%: %c4Technology%]&lt;/div&gt;&lt;br style=&quot;font-size: 9px;&quot;&gt;&lt;div style=&quot;font-size: 9px;&quot;&gt;%c4Description%&lt;/div&gt;" link="data:page/id,l6TK4eRhQgkXsPULGgNu" id="fdJomaq6Z2BWqjaNCMaA-1">
          <mxCell style="rounded=1;whiteSpace=wrap;html=1;labelBackgroundColor=none;fillColor=#438DD5;fontColor=#ffffff;align=center;arcSize=10;strokeColor=#3C7FC0;metaEdit=1;metaData={&quot;c4Type&quot;:{&quot;editable&quot;:false}};points=[[0.25,0,0],[0.5,0,0],[0.75,0,0],[1,0.25,0],[1,0.5,0],[1,0.75,0],[0.75,1,0],[0.5,1,0],[0.25,1,0],[0,0.75,0],[0,0.5,0],[0,0.25,0]];fontSize=9;" parent="1" vertex="1">
            <mxGeometry x="680" y="495" width="155" height="100" as="geometry" />
          </mxCell>
        </object>
        <object placeholders="1" c4Name="Klient" c4Type="Component" c4Technology="RIOT OS/C" c4Description="Klient wysyłający dane" label="&lt;b&gt;%c4Name%&lt;/b&gt;&lt;div&gt;[%c4Type%: %c4Technology%]&lt;/div&gt;&lt;br&gt;&lt;div&gt;%c4Description%&lt;/div&gt;" id="h9_7JwZI7vynwQJtrSVA-1">
          <mxCell style="rounded=1;whiteSpace=wrap;html=1;labelBackgroundColor=none;fillColor=#85BBF0;fontColor=#ffffff;align=center;arcSize=10;strokeColor=#78A8D8;metaEdit=1;metaData={&quot;c4Type&quot;:{&quot;editable&quot;:false}};points=[[0.25,0,0],[0.5,0,0],[0.75,0,0],[1,0.25,0],[1,0.5,0],[1,0.75,0],[0.75,1,0],[0.5,1,0],[0.25,1,0],[0,0.75,0],[0,0.5,0],[0,0.25,0]];" parent="1" vertex="1">
            <mxGeometry x="355" y="490" width="160" height="110.00000000000001" as="geometry" />
          </mxCell>
        </object>
        <mxCell id="h9_7JwZI7vynwQJtrSVA-2" value="Wysyła dane&lt;div&gt;[JSON/UDP/DTLS]&lt;/div&gt;" style="edgeStyle=orthogonalEdgeStyle;rounded=0;orthogonalLoop=1;jettySize=auto;html=1;entryX=0;entryY=0.5;entryDx=0;entryDy=0;entryPerimeter=0;labelBackgroundColor=none;dashed=1;dashPattern=8 8;" parent="1" source="h9_7JwZI7vynwQJtrSVA-1" target="fdJomaq6Z2BWqjaNCMaA-1" edge="1">
          <mxGeometry relative="1" as="geometry" />
        </mxCell>
        <object placeholders="1" c4Name="Sensor" c4Type="Component" c4Technology="RIOT OS/C" c4Description="Sensor zbierający pomiary" label="&lt;b&gt;%c4Name%&lt;/b&gt;&lt;div&gt;[%c4Type%: %c4Technology%]&lt;/div&gt;&lt;br&gt;&lt;div&gt;%c4Description%&lt;/div&gt;" id="WqSNrq2pLKKbrX2KXDFc-1">
          <mxCell style="rounded=1;whiteSpace=wrap;html=1;labelBackgroundColor=none;fillColor=#85BBF0;fontColor=#ffffff;align=center;arcSize=10;strokeColor=#78A8D8;metaEdit=1;metaData={&quot;c4Type&quot;:{&quot;editable&quot;:false}};points=[[0.25,0,0],[0.5,0,0],[0.75,0,0],[1,0.25,0],[1,0.5,0],[1,0.75,0],[0.75,1,0],[0.5,1,0],[0.25,1,0],[0,0.75,0],[0,0.5,0],[0,0.25,0]];" parent="1" vertex="1">
            <mxGeometry x="85" y="490" width="160" height="110.00000000000001" as="geometry" />
          </mxCell>
        </object>
        <mxCell id="WqSNrq2pLKKbrX2KXDFc-2" value="Czyta dane" style="edgeStyle=orthogonalEdgeStyle;rounded=0;orthogonalLoop=1;jettySize=auto;html=1;entryX=1;entryY=0.5;entryDx=0;entryDy=0;entryPerimeter=0;dashed=1;dashPattern=8 8;" parent="1" source="h9_7JwZI7vynwQJtrSVA-1" target="WqSNrq2pLKKbrX2KXDFc-1" edge="1">
          <mxGeometry relative="1" as="geometry" />
        </mxCell>
      </root>
    </mxGraphModel>
  </diagram>
  <diagram id="l6TK4eRhQgkXsPULGgNu" name="Serwer API">
    <mxGraphModel dx="1368" dy="754" grid="1" gridSize="10" guides="1" tooltips="1" connect="1" arrows="1" fold="1" page="1" pageScale="1" pageWidth="850" pageHeight="1100" math="0" shadow="0">
      <root>
        <mxCell id="0" />
        <mxCell id="1" parent="0" />
        <mxCell id="ufSAvjeCgCpdq8iEEu7m-1" value="Serwer API&lt;div&gt;[Docker container]&lt;/div&gt;" style="rounded=1;whiteSpace=wrap;html=1;labelBackgroundColor=none;fillColor=#ffffff;align=left;arcSize=1;verticalAlign=bottom;points=[[0.25,0,0],[0.5,0,0],[0.75,0,0],[1,0.25,0],[1,0.5,0],[1,0.75,0],[0.75,1,0],[0.5,1,0],[0.25,1,0],[0,0.75,0],[0,0.5,0],[0,0.25,0]];strokeColor=#666666;fontColor=#666666;" parent="1" vertex="1">
          <mxGeometry x="275" y="320" width="300" height="300" as="geometry" />
        </mxCell>
        <mxCell id="NsXi-z_R7fA8at1jLDZ2-1" value="Wysyła zapytania&lt;div&gt;[JSON]&lt;/div&gt;" style="edgeStyle=orthogonalEdgeStyle;rounded=0;orthogonalLoop=1;jettySize=auto;html=1;entryX=1;entryY=0.5;entryDx=0;entryDy=0;entryPerimeter=0;dashed=1;dashPattern=8 8;" parent="1" source="MgISDa-2B0v6wVV7p8zQ-1" target="3Tfcc2wQQNtM6zRNfvbx-1" edge="1">
          <mxGeometry relative="1" as="geometry" />
        </mxCell>
        <object placeholders="1" c4Name="Strona internetowa SPA" c4Type="Container" c4Technology="React" c4Description="Umożliwa odczyt danych przez użytkownika. Uruchamiana w kontenerze Docker." label="&lt;b style=&quot;font-size: 9px;&quot;&gt;%c4Name%&lt;/b&gt;&lt;div style=&quot;font-size: 9px;&quot;&gt;[%c4Type%: %c4Technology%]&lt;/div&gt;&lt;br style=&quot;font-size: 9px;&quot;&gt;&lt;div style=&quot;font-size: 9px;&quot;&gt;%c4Description%&lt;/div&gt;" link="data:page/id,IFkN-JWvuqYwzXRRgcgd" id="MgISDa-2B0v6wVV7p8zQ-1">
          <mxCell style="rounded=1;whiteSpace=wrap;html=1;labelBackgroundColor=none;fillColor=#438DD5;fontColor=#ffffff;align=center;arcSize=10;strokeColor=#3C7FC0;metaEdit=1;metaData={&quot;c4Type&quot;:{&quot;editable&quot;:false}};points=[[0.25,0,0],[0.5,0,0],[0.75,0,0],[1,0.25,0],[1,0.5,0],[1,0.75,0],[0.75,1,0],[0.5,1,0],[0.25,1,0],[0,0.75,0],[0,0.5,0],[0,0.25,0]];fontSize=9;" parent="1" vertex="1">
            <mxGeometry x="665" y="355" width="140" height="90" as="geometry" />
          </mxCell>
        </object>
        <object placeholders="1" c4Name="Platforma Sprzętowa" c4Type="Container" c4Technology="RIOT OS" c4Description="Sprzęt z system RIOT OS czytający dane z sensorów" label="&lt;b style=&quot;font-size: 9px;&quot;&gt;%c4Name%&lt;/b&gt;&lt;div style=&quot;font-size: 9px;&quot;&gt;[%c4Type%: %c4Technology%]&lt;/div&gt;&lt;br style=&quot;font-size: 9px;&quot;&gt;&lt;div style=&quot;font-size: 9px;&quot;&gt;%c4Description%&lt;/div&gt;" link="data:page/id,vCPawuZYCpwM6U8ceN0Y" id="QYMCNFkfonTrQd2wW9xa-1">
          <mxCell style="rounded=1;whiteSpace=wrap;html=1;labelBackgroundColor=none;fillColor=#438DD5;fontColor=#ffffff;align=center;arcSize=10;strokeColor=#3C7FC0;metaEdit=1;metaData={&quot;c4Type&quot;:{&quot;editable&quot;:false}};points=[[0.25,0,0],[0.5,0,0],[0.75,0,0],[1,0.25,0],[1,0.5,0],[1,0.75,0],[0.75,1,0],[0.5,1,0],[0.25,1,0],[0,0.75,0],[0,0.5,0],[0,0.25,0]];fontSize=9;" parent="1" vertex="1">
            <mxGeometry x="45" y="355" width="140" height="90" as="geometry" />
          </mxCell>
        </object>
        <mxCell id="NsXi-z_R7fA8at1jLDZ2-2" value="Wysyła dane&lt;div&gt;[JSON / UDP]&lt;/div&gt;" style="edgeStyle=orthogonalEdgeStyle;rounded=0;orthogonalLoop=1;jettySize=auto;html=1;entryX=0;entryY=0.5;entryDx=0;entryDy=0;entryPerimeter=0;dashed=1;dashPattern=8 8;" parent="1" source="QYMCNFkfonTrQd2wW9xa-1" target="3Tfcc2wQQNtM6zRNfvbx-1" edge="1">
          <mxGeometry relative="1" as="geometry">
            <mxPoint x="135" y="400" as="targetPoint" />
          </mxGeometry>
        </mxCell>
        <object placeholders="1" c4Name="API Router" c4Type="Component" c4Technology="Python" c4Description="Zapewnia dostęp do zasobów poprzez metody HTTP" label="&lt;b&gt;%c4Name%&lt;/b&gt;&lt;div&gt;[%c4Type%: %c4Technology%]&lt;/div&gt;&lt;br&gt;&lt;div&gt;%c4Description%&lt;/div&gt;" id="3Tfcc2wQQNtM6zRNfvbx-1">
          <mxCell style="rounded=1;whiteSpace=wrap;html=1;labelBackgroundColor=none;fillColor=#85BBF0;fontColor=#ffffff;align=center;arcSize=10;strokeColor=#78A8D8;metaEdit=1;metaData={&quot;c4Type&quot;:{&quot;editable&quot;:false}};points=[[0.25,0,0],[0.5,0,0],[0.75,0,0],[1,0.25,0],[1,0.5,0],[1,0.75,0],[0.75,1,0],[0.5,1,0],[0.25,1,0],[0,0.75,0],[0,0.5,0],[0,0.25,0]];" parent="1" vertex="1">
            <mxGeometry x="345" y="345" width="160" height="110.00000000000001" as="geometry" />
          </mxCell>
        </object>
        <object placeholders="1" c4Type="Database" c4Technology="PostgreSQL" c4Description="Centralna baza danych" label="%c4Type%&lt;div style=&quot;font-size: 9px;&quot;&gt;[Container:&amp;nbsp;%c4Technology%]&lt;/div&gt;&lt;br style=&quot;font-size: 9px;&quot;&gt;&lt;div style=&quot;font-size: 9px;&quot;&gt;%c4Description%&lt;/div&gt;" id="nNHpQw8aw6B4dgIR8dZF-1">
          <mxCell style="shape=cylinder;whiteSpace=wrap;html=1;boundedLbl=1;rounded=0;labelBackgroundColor=none;fillColor=#438DD5;fontSize=9;fontColor=#ffffff;align=center;strokeColor=#3C7FC0;metaEdit=1;points=[[0.5,0,0],[1,0.25,0],[1,0.5,0],[1,0.75,0],[0.5,1,0],[0,0.75,0],[0,0.5,0],[0,0.25,0]];metaData={&quot;c4Type&quot;:{&quot;editable&quot;:false}};" parent="1" vertex="1">
            <mxGeometry x="372.5" y="690" width="105" height="90" as="geometry" />
          </mxCell>
        </object>
        <object placeholders="1" c4Name="Database Controller" c4Type="Component" c4Technology="Python" c4Description="Komunikuje się z bazą danych" label="&lt;b&gt;%c4Name%&lt;/b&gt;&lt;div&gt;[%c4Type%: %c4Technology%]&lt;/div&gt;&lt;br&gt;&lt;div&gt;%c4Description%&lt;/div&gt;" id="PpMhssajekEPoOJwtr6R-1">
          <mxCell style="rounded=1;whiteSpace=wrap;html=1;labelBackgroundColor=none;fillColor=#85BBF0;fontColor=#ffffff;align=center;arcSize=10;strokeColor=#78A8D8;metaEdit=1;metaData={&quot;c4Type&quot;:{&quot;editable&quot;:false}};points=[[0.25,0,0],[0.5,0,0],[0.75,0,0],[1,0.25,0],[1,0.5,0],[1,0.75,0],[0.75,1,0],[0.5,1,0],[0.25,1,0],[0,0.75,0],[0,0.5,0],[0,0.25,0]];" parent="1" vertex="1">
            <mxGeometry x="345" y="490" width="160" height="110.00000000000001" as="geometry" />
          </mxCell>
        </object>
        <mxCell id="Yff6Huco9bTjg4_9Joaw-1" value="Czyta dane&lt;div&gt;[HTTPS]&lt;/div&gt;" style="edgeStyle=orthogonalEdgeStyle;rounded=0;orthogonalLoop=1;jettySize=auto;html=1;entryX=0.5;entryY=0;entryDx=0;entryDy=0;entryPerimeter=0;dashed=1;dashPattern=8 8;" parent="1" source="PpMhssajekEPoOJwtr6R-1" target="nNHpQw8aw6B4dgIR8dZF-1" edge="1">
          <mxGeometry relative="1" as="geometry" />
        </mxCell>
        <mxCell id="Yff6Huco9bTjg4_9Joaw-2" style="edgeStyle=orthogonalEdgeStyle;rounded=0;orthogonalLoop=1;jettySize=auto;html=1;entryX=0.5;entryY=0;entryDx=0;entryDy=0;entryPerimeter=0;" parent="1" source="3Tfcc2wQQNtM6zRNfvbx-1" target="PpMhssajekEPoOJwtr6R-1" edge="1">
          <mxGeometry relative="1" as="geometry" />
        </mxCell>
      </root>
    </mxGraphModel>
  </diagram>
  <diagram id="IFkN-JWvuqYwzXRRgcgd" name="Strona Internetowa">
    <mxGraphModel dx="2218" dy="1854" grid="1" gridSize="10" guides="1" tooltips="1" connect="1" arrows="1" fold="1" page="1" pageScale="1" pageWidth="850" pageHeight="1100" math="0" shadow="0">
      <root>
        <mxCell id="0" />
        <mxCell id="1" parent="0" />
        <mxCell id="VmBEBeTcgovf2m9zprxi-1" value="Strona Internetowa SPA&lt;div&gt;[Docker container]&lt;/div&gt;" style="rounded=1;whiteSpace=wrap;html=1;labelBackgroundColor=none;fillColor=#ffffff;align=left;arcSize=1;verticalAlign=bottom;points=[[0.25,0,0],[0.5,0,0],[0.75,0,0],[1,0.25,0],[1,0.5,0],[1,0.75,0],[0.75,1,0],[0.5,1,0],[0.25,1,0],[0,0.75,0],[0,0.5,0],[0,0.25,0]];strokeColor=#666666;fontColor=#666666;" parent="1" vertex="1">
          <mxGeometry x="-595" y="-565" width="570" height="300" as="geometry" />
        </mxCell>
        <object placeholders="1" c4Name="Reverse proxy" c4Type="Component" c4Technology="Nginx" c4Description="Odpowiednio przekierowuje zapytania i serwuje pliki." label="&lt;b&gt;%c4Name%&lt;/b&gt;&lt;div&gt;[%c4Type%: %c4Technology%]&lt;/div&gt;&lt;br&gt;&lt;div&gt;%c4Description%&lt;/div&gt;" id="qEAlLLDVh3OOxHwJOlKN-1">
          <mxCell style="rounded=1;whiteSpace=wrap;html=1;labelBackgroundColor=none;fillColor=#85BBF0;fontColor=#ffffff;align=center;arcSize=10;strokeColor=#78A8D8;metaEdit=1;metaData={&quot;c4Type&quot;:{&quot;editable&quot;:false}};points=[[0.25,0,0],[0.5,0,0],[0.75,0,0],[1,0.25,0],[1,0.5,0],[1,0.75,0],[0.75,1,0],[0.5,1,0],[0.25,1,0],[0,0.75,0],[0,0.5,0],[0,0.25,0]];" parent="1" vertex="1">
            <mxGeometry x="-505" y="-470" width="160" height="110.00000000000001" as="geometry" />
          </mxCell>
        </object>
        <object c4Name="Użytkownik" c4Type="Person" c4Description="Osoba mająca uprawnienia aby&#xa;odczytać dane" label="&lt;b style=&quot;font-size: 9px;&quot;&gt;%c4Name%&lt;/b&gt;&lt;div style=&quot;font-size: 9px;&quot;&gt;[%c4Type%]&lt;/div&gt;&lt;br style=&quot;font-size: 9px;&quot;&gt;&lt;div style=&quot;font-size: 9px;&quot;&gt;%c4Description%&lt;/div&gt;" placeholders="1" id="-SS70hi1WRr2SkmO8c4Z-1">
          <mxCell style="html=1;dashed=0;whitespace=wrap;fillColor=#08427b;strokeColor=none;fontColor=#ffffff;shape=mxgraph.c4.person;align=center;metaEdit=1;points=[[0.5,0,0],[1,0.5,0],[1,0.75,0],[0.75,1,0],[0.5,1,0],[0.25,1,0],[0,0.75,0],[0,0.5,0]];metaData={&quot;c4Type&quot;:{&quot;editable&quot;:false}};fontSize=9;" parent="1" vertex="1">
            <mxGeometry x="-505" y="-835" width="160" height="140" as="geometry" />
          </mxCell>
        </object>
        <mxCell id="-SS70hi1WRr2SkmO8c4Z-2" value="Wysyła zapytanie&lt;div&gt;[HTTP/S]&lt;/div&gt;" style="edgeStyle=orthogonalEdgeStyle;rounded=0;orthogonalLoop=1;jettySize=auto;html=1;entryX=0.5;entryY=0;entryDx=0;entryDy=0;entryPerimeter=0;dashed=1;dashPattern=8 8;" parent="1" source="-SS70hi1WRr2SkmO8c4Z-1" target="qEAlLLDVh3OOxHwJOlKN-1" edge="1">
          <mxGeometry x="-0.0011" relative="1" as="geometry">
            <mxPoint as="offset" />
          </mxGeometry>
        </mxCell>
        <object placeholders="1" c4Name="SPA" c4Type="Component" c4Technology="React" c4Description="Strona internetowa renderująca się po stronie klienta. Dostarczana jako statyczne pliki." label="&lt;b&gt;%c4Name%&lt;/b&gt;&lt;div&gt;[%c4Type%: %c4Technology%]&lt;/div&gt;&lt;br&gt;&lt;div&gt;%c4Description%&lt;/div&gt;" id="-SS70hi1WRr2SkmO8c4Z-3">
          <mxCell style="rounded=1;whiteSpace=wrap;html=1;labelBackgroundColor=none;fillColor=#85BBF0;fontColor=#ffffff;align=center;arcSize=10;strokeColor=#78A8D8;metaEdit=1;metaData={&quot;c4Type&quot;:{&quot;editable&quot;:false}};points=[[0.25,0,0],[0.5,0,0],[0.75,0,0],[1,0.25,0],[1,0.5,0],[1,0.75,0],[0.75,1,0],[0.5,1,0],[0.25,1,0],[0,0.75,0],[0,0.5,0],[0,0.25,0]];" parent="1" vertex="1">
            <mxGeometry x="-235" y="-470" width="160" height="110.00000000000001" as="geometry" />
          </mxCell>
        </object>
        <mxCell id="-SS70hi1WRr2SkmO8c4Z-4" value="location /" style="edgeStyle=orthogonalEdgeStyle;rounded=0;orthogonalLoop=1;jettySize=auto;html=1;entryX=0;entryY=0.5;entryDx=0;entryDy=0;entryPerimeter=0;dashed=1;dashPattern=8 8;" parent="1" source="qEAlLLDVh3OOxHwJOlKN-1" target="-SS70hi1WRr2SkmO8c4Z-3" edge="1">
          <mxGeometry relative="1" as="geometry" />
        </mxCell>
        <object placeholders="1" c4Name="Serwer API" c4Type="Container" c4Technology="Python" c4Description="Centralny serwer obsługujący zapis danych z sensorów i odczyt danych przez użytkowników. Uruchamiany w kontenerze Docker." label="&lt;b style=&quot;font-size: 9px;&quot;&gt;%c4Name%&lt;/b&gt;&lt;div style=&quot;font-size: 9px;&quot;&gt;[%c4Type%: %c4Technology%]&lt;/div&gt;&lt;br style=&quot;font-size: 9px;&quot;&gt;&lt;div style=&quot;font-size: 9px;&quot;&gt;%c4Description%&lt;/div&gt;" link="data:page/id,l6TK4eRhQgkXsPULGgNu" id="rlkIpH86IsoxYcE7Ungu-1">
          <mxCell style="rounded=1;whiteSpace=wrap;html=1;labelBackgroundColor=none;fillColor=#438DD5;fontColor=#ffffff;align=center;arcSize=10;strokeColor=#3C7FC0;metaEdit=1;metaData={&quot;c4Type&quot;:{&quot;editable&quot;:false}};points=[[0.25,0,0],[0.5,0,0],[0.75,0,0],[1,0.25,0],[1,0.5,0],[1,0.75,0],[0.75,1,0],[0.5,1,0],[0.25,1,0],[0,0.75,0],[0,0.5,0],[0,0.25,0]];fontSize=9;" parent="1" vertex="1">
            <mxGeometry x="-825" y="-472.5" width="160" height="115" as="geometry" />
          </mxCell>
        </object>
        <mxCell id="rlkIpH86IsoxYcE7Ungu-2" value="location /api" style="edgeStyle=orthogonalEdgeStyle;rounded=0;orthogonalLoop=1;jettySize=auto;html=1;entryX=1;entryY=0.5;entryDx=0;entryDy=0;entryPerimeter=0;dashed=1;dashPattern=8 8;" parent="1" source="qEAlLLDVh3OOxHwJOlKN-1" target="rlkIpH86IsoxYcE7Ungu-1" edge="1">
          <mxGeometry relative="1" as="geometry" />
        </mxCell>
      </root>
    </mxGraphModel>
  </diagram>
</mxfile>
